<svg id="a" xmlns="http://www.w3.org/2000/svg" viewBox="0 0 65 65"><defs><style>.b{fill:#ffffff;fill-rule:evenodd;}</style></defs><path class="b" d="M33.68,24.94c-.65-.65-1.7-.65-2.35,0h0l-7.65,7.65c-.65,.65-.65,1.7,0,2.35,.65,.65,1.7,.65,2.35,0l4.81-4.8v14.95c0,.92,.75,1.67,1.67,1.67h0c.92-.01,1.67-.76,1.67-1.68v-14.96l4.81,4.81c.65,.65,1.72,.63,2.35,0,.31-.31,.49-.73,.49-1.17s-.18-.86-.49-1.17l-7.65-7.65Z"/><path class="b" d="M43.9,18.24H21.1c-.88,0-1.6,.72-1.6,1.6s.72,1.6,1.6,1.6h22.8c.88,0,1.6-.72,1.6-1.6s-.72-1.6-1.6-1.6Z"/></svg>

        