<svg width="65" height="65" viewBox="0 0 65 65" fill="none" xmlns="http://www.w3.org/2000/svg">
<path fill-rule="evenodd" clip-rule="evenodd" d="M32.5 65C50.4493 65 65 50.4493 65 32.5C65 14.5507 50.4493 -8.90146e-06 32.5 -2.84124e-06C14.5507 -4.41041e-06 4.41041e-06 14.5507 2.84124e-06 32.5C8.90146e-06 50.4493 14.5507 65 32.5 65ZM33.0001 47.3086C33.9206 47.3086 34.6668 46.5624 34.6668 45.6419L34.6668 30.6792L39.475 35.4875C40.125 36.1375 41.1917 36.1208 41.825 35.4875C42.1371 35.1761 42.3125 34.7534 42.3125 34.3125C42.3125 33.8716 42.1371 33.4489 41.825 33.1375L34.175 25.4875C33.525 24.8375 32.475 24.8375 31.825 25.4875L24.175 33.1375C23.525 33.7875 23.525 34.8375 24.175 35.4875C24.825 36.1375 25.875 36.1375 26.525 35.4875L31.3334 30.6915L31.3334 45.6419C31.3334 46.5624 32.0796 47.3086 33.0001 47.3086ZM20 20.4C20 19.5163 20.7163 18.8 21.6 18.8L44.4 18.8C45.2837 18.8 46 19.5163 46 20.4C46 21.2837 45.2837 22 44.4 22L21.6 22C20.7163 22 20 21.2837 20 20.4Z" fill="#8492A6" fill-opacity="0.25"/>
</svg>

        